<?xml version="1.0" encoding="UTF-8" standalone="no"?>
<svg width="1000px" height="688px" viewBox="0 0 1000 688" version="1.1" xmlns="http://www.w3.org/2000/svg" xmlns:xlink="http://www.w3.org/1999/xlink">
    <!-- Generator: Sketch 3.8.3 (29802) - http://www.bohemiancoding.com/sketch -->
    <title>Camada_x0020_1</title>
    <desc>Created with Sketch.</desc>
    <defs></defs>
    <g id="Page-1" stroke="none" stroke-width="1" fill="none" fill-rule="evenodd">
        <g id="Camada_x0020_1" fill="#FFFFFF">
            <path d="M72.8165527,588.114324 C73.2782138,582.826206 80.664792,562.387208 82.805221,557.099089 C90.9472447,536.702061 108.238553,484.870105 115.331347,463.381878 L174.885634,292.525286 C179.082553,279.514836 182.524027,282.284803 200.654719,276.19927 L247.995971,260.418853 C269.40026,253.284089 289.293658,246.149326 311.411424,239.644101 C342.720443,230.410878 365.929408,213.916985 401.183531,225.542452 C407.730726,227.682881 413.73232,231.040416 418.181055,236.244596 C442.649096,264.825618 428.715323,316.279851 414.78155,344.147396 L399.462794,370.923742 C397.951903,373.232048 396.734797,374.449154 395.056029,376.505645 L381.583917,395.139967 C364.544424,416.166534 358.584799,419.356193 336.299156,432.912242 C307.550258,450.413397 226.213959,464.095354 187.0567,471.985563 C172.157636,474.965375 174.214127,472.405255 172.031729,477.987157 C169.807361,483.652999 168.590255,487.807949 166.617703,493.599698 C164.68712,499.307508 163.050321,503.126705 161.077769,509.086331 L139.757418,570.864985 C136.064129,582.322575 138.62425,580.643807 110.630797,583.833466 L72.8585218,588.156293 L72.8165527,588.114324 L72.8165527,588.114324 L72.8165527,588.114324 Z M572.459814,148.403072 C572.459814,156.125404 558.651949,200.486843 556.259705,208.628866 C553.237923,218.785412 550.425987,227.137281 547.488144,237.503672 C537.121753,273.932933 524.111302,320.308893 512.821589,355.688924 C509.589961,365.761531 507.57544,375.624292 504.217904,385.864775 C493.389852,419.104377 480.127586,467.95652 469.593319,504.091996 C459.059051,540.269442 461.954925,539.388089 449.741889,540.731103 C436.395686,542.200025 366.684853,552.104755 364.082763,549.502665 C362.15218,547.572082 374.365216,511.562513 375.750199,506.652117 C377.30306,501.112184 378.352289,496.453603 380.114996,491.081546 C386.620221,471.272086 391.950308,452.553825 397.658119,432.198766 C413.480505,375.666261 434.465103,312.460654 450.371427,255.634364 C453.309271,245.184035 455.995299,237.08398 459.059051,226.67562 C462.122802,216.351198 464.8508,207.243883 467.830612,196.667646 C472.195409,181.264952 470.306795,181.474797 485.331766,176.522433 C495.57225,173.164897 504.175935,170.227053 514.416418,166.827549 C525.076594,163.260167 564.275822,148.403072 572.459814,148.403072 L572.459814,148.403072 L572.459814,148.403072 Z M10.786083,687.791161 C35.8836614,687.791161 75.3766735,682.209258 94.9762874,682.251228 L135.938221,678.935661 C166.281949,677.466739 199.101859,673.815419 230.117094,672.304528 L500.608553,651.40387 C504.553658,650.984178 508.540731,651.529777 512.485835,651.068116 L595.710748,644.562891 C608.385445,644.60486 624.333739,642.254585 636.79859,641.331263 L679.187476,638.309481 C711.797541,633.566962 702.942041,616.653376 702.102657,599.194191 C700.423889,564.485668 696.017123,528.518068 694.338356,493.977421 C692.53368,457.380283 685.902548,405.002728 684.391657,369.916481 L679.942922,317.87468 C679.775045,314.22336 680.194737,310.57204 679.775045,306.962689 C676.291602,275.65367 674.612834,227.473035 671.381206,203.508625 L658.748479,36.7230453 C657.321526,24.0063793 657.909095,0 650.060855,0 C638.183573,0 630.671087,6.33734839 617.576699,12.9265119 L476.098544,81.9238679 C473.370546,83.3088513 472.573131,84.0642968 469.593319,85.407311 C439.039745,99.3830528 393.713015,122.592017 363.453225,137.700928 L110.127167,262.13959 C86.6663869,273.848995 66.1854199,278.633483 61.3169933,297.519621 L32.2743107,478.952449 C30.3437277,491.585176 28.5390523,504.008058 26.5665002,515.339741 L0,677.760524 C0.167876778,682.419104 5.12024174,687.83313 10.7441138,687.83313 L10.786083,687.791161 L10.786083,687.791161 L10.786083,687.791161 Z" id="Shape"></path>
            <path d="M951.315734,499.517354 C950.938011,497.418895 952.700718,495.57225 952.029211,498.803878 C952.029211,498.887816 952.07118,503.37852 951.315734,499.517354 L951.315734,499.517354 L951.315734,499.517354 Z M873.756663,664.540227 C873.756663,649.683133 870.483065,635.20376 869.22399,620.346666 L864.397532,576.446888 C860.200613,546.313006 858.647753,517.773954 854.408864,487.849918 C852.268435,472.699039 852.058589,458.681328 850.002098,443.530449 C844.923826,406.177865 842.951274,370.252235 837.663155,332.899652 C836.697864,326.184581 835.103034,316.111974 834.977127,310.110379 C839.048139,311.201578 863.893902,332.731775 868.972174,337.054602 C879.800227,346.203886 876.568599,341.461367 880.387795,356.654216 L956.939606,667.771855 C962.143786,685.608763 957.401267,680.02686 979.435095,684.055903 C987.073488,685.440886 993.24296,686.28027 1000,687.83313 C1000,669.282746 997.146095,654.131867 996.684434,635.74936 L975.657867,365.467747 C975.699836,353.632434 965.837076,348.218408 959.163974,339.866538 C956.981576,337.13854 954.925085,335.753557 952.658748,333.067528 L936.122886,314.139422 C932.051874,309.858564 937.4659,311.915054 931.296428,311.243547 C932.933227,318.294372 933.017165,325.764889 934.150334,333.864943 C938.473161,365.006086 940.235867,394.426491 944.26491,425.651572 C946.111554,440.047005 951.231796,483.946783 951.231796,496.201788 L950.140597,496.201788 C950.140597,489.696563 947.790322,483.946783 946.363369,477.819281 L907.793679,309.270995 C905.69522,300.373526 903.470852,278.843329 897.805011,272.757796 L886.725144,260.586729 C884.500776,258.026608 884.248961,257.061317 881.772779,254.501196 L845.511395,214.336677 C845.343518,214.1688 845.133672,213.916985 845.007764,213.749108 C844.336257,212.951693 844.336257,212.909724 843.496873,211.944433 C830.906115,197.884753 817.014311,184.118857 805.220968,169.387669 L777.689176,139.337726 C775.464809,136.651698 775.296932,135.896252 772.652873,133.294162 C769.882906,130.524195 769.421245,130.104503 766.903093,126.872875 L745.498804,102.866496 C734.75469,91.7446594 685.734671,34.7504931 678.725815,30.0499433 C678.725815,45.8303605 685.23104,104.964956 686.490116,125.320015 C687.035716,134.133546 689.008268,166.659672 691.190666,172.661267 C692.575649,176.480463 713.434339,193.687833 717.799135,198.094599 L757.124271,235.195367 C764.342972,242.372099 764.259034,240.693331 765.098418,253.78772 C766.903093,282.158895 772.862719,322.02963 773.995887,349.015822 C774.667394,364.376548 777.773115,380.576657 778.402652,395.559659 C779.07416,411.591892 781.382465,426.994586 782.935325,443.068788 C785.957107,474.335837 789.104797,506.358333 791.790826,538.338859 L796.449406,585.72208 C797.372728,592.605028 797.708482,601.166744 798.505897,609.140891 C798.799681,612.036765 799.345281,617.115038 799.89088,621.018173 L802.031309,644.353045 C803.206446,653.250514 803.877954,651.865531 829.814916,656.440173 C837.91497,657.867126 843.077181,659.126201 851.051328,660.679062 C857.640492,661.980107 867.293407,664.498258 873.672724,664.666135 L873.756663,664.540227 L873.756663,664.540227 L873.756663,664.540227 Z" id="Shape"></path>
            <path d="M202.417426,393.209384 C209.887942,393.209384 298.06522,369.790574 302.891678,367.39833 C308.179796,364.75427 313.677761,360.683258 317.916649,356.948 C344.231334,333.697066 339.572754,309.061149 324.295967,309.061149 C313.425945,309.061149 295.253284,315.986066 283.543879,319.259663 L223.989592,337.264448 C220.883871,339.362908 210.643388,368.027868 208.922651,373.148109 C207.285852,378.058505 202.543333,387.837327 202.417426,393.209384 L202.417426,393.209384 L202.417426,393.209384 Z" id="Shape"></path>
        </g>
    </g>
</svg>